<svg id="Kasperky_Tota_Security" data-name="Kasperky Tota Security" xmlns="http://www.w3.org/2000/svg" xmlns:xlink="http://www.w3.org/1999/xlink" viewBox="0 0 169 65"><defs><style>.cls-1{fill:none;}.cls-2{clip-path:url(#clip-path);}.cls-3{fill:#009982;}.cls-4{fill:#4a4a49;}.cls-5{fill:#706f6f;}.cls-6{fill:#51aee2;}.cls-7{fill:#afcb37;}.cls-8{fill:#fff;}.cls-9{fill:#fbba00;}</style><clipPath id="clip-path"><rect class="cls-1" x="2.1" y="2.29" width="54.75" height="60.62"/></clipPath></defs><g id="icon"><g class="cls-2"><g class="cls-2"><path class="cls-3" d="M2.1,20.7V44.5a6.44,6.44,0,0,0,3.25,5.6l20.93,12a6.47,6.47,0,0,0,6.4,0l20.93-12a6.44,6.44,0,0,0,3.25-5.6V20.7a6.44,6.44,0,0,0-3.25-5.6l-20.93-12a6.47,6.47,0,0,0-6.4,0L5.35,15.1A6.44,6.44,0,0,0,2.1,20.7"/><rect class="cls-4" x="15.79" y="16.96" width="27.38" height="0.98"/><path class="cls-4" d="M34.37,38.47c0-1.08-2.19-2-4.89-2s-4.89.88-4.89,2,2.19,2,4.89,2,4.89-.87,4.89-2"/><rect class="cls-5" x="15.79" y="17.93" width="27.38" height="20.53"/><rect class="cls-6" x="17.75" y="19.89" width="23.47" height="16.62"/><rect class="cls-5" x="31.43" y="47.27" width="11.73" height="0.98"/><rect class="cls-4" x="31.43" y="42.38" width="11.73" height="4.89"/><rect class="cls-7" x="32.41" y="43.35" width="9.78" height="2.93"/><path class="cls-8" d="M29.48,22.29l-4.4,2.46v4.88c0,3,4.4,4.48,4.4,4.48s4.4-1.44,4.4-4.48V24.75Zm3.42,7.34c0,1.86-2.53,3.07-3.42,3.44-.89-.37-3.42-1.58-3.42-3.44v-4.3l3.42-1.92,3.42,1.92Z"/><rect class="cls-5" x="15.79" y="31.62" width="13.69" height="16.62"/><rect class="cls-4" x="15.79" y="30.64" width="13.69" height="0.98"/><rect class="cls-9" x="16.77" y="32.6" width="11.73" height="13.69"/><path class="cls-8" d="M22.63,34.7a2.44,2.44,0,0,0-.86,4.73v1l.43.43v.29l-.43.43v.29l.43.43v.29l-.43.43v.65l.86.5.87-.5V39.43a2.44,2.44,0,0,0-.87-4.73m.29,8.48a.15.15,0,0,1-.14.15.15.15,0,0,1-.15-.15V39.59l.29,0Zm-.29-6.47a.57.57,0,0,1-.57-.57.58.58,0,1,1,1.15,0,.57.57,0,0,1-.58.57"/></g></g></g><g id="copy"><path d="M69.57,16.75h1.75v4.9l4.39-4.9h2.2l-4.54,5V22l4.79,5.62H75.88l-4.56-5.45V27.6H69.57Z"/><path d="M85.78,22.66V27.6H84.06V27h-.25a3.23,3.23,0,0,1-2.2.82c-1.67,0-2.67-.92-2.67-2.28s1-2.34,2.8-2.34h2.32v-.42c0-.74-.45-1.24-1.44-1.24s-1.43.39-1.54,1H79.25c.18-1.53,1.43-2.59,3.38-2.59S85.78,20.77,85.78,22.66Zm-1.72,2.65v-.9H81.91c-.78,0-1.21.33-1.21,1s.54,1,1.3,1A2.53,2.53,0,0,0,84.06,25.31Z"/><path d="M87.1,25.25h1.73c.11.59.69,1.05,1.65,1.05s1.49-.42,1.49-1-.42-.74-1.06-.81l-1.29-.12c-1.55-.16-2.29-.87-2.29-2.06,0-1.43,1.19-2.41,3.07-2.41s2.91.89,3,2.28H91.76c-.07-.49-.59-.83-1.38-.83s-1.33.29-1.33.88.4.73,1.27.79l1.12.11c1.39.12,2.25.67,2.25,2.11s-1.17,2.51-3.24,2.51S87.19,26.67,87.1,25.25Z"/><path d="M95.2,20.13h1.72v1h.25a2.63,2.63,0,0,1,2.3-1.17c1.72,0,3.36,1.31,3.36,3.88s-1.75,4-3.47,4a3.06,3.06,0,0,1-2.44-1.1V31H95.2Zm5.89,3.74a2.1,2.1,0,1,0-4.17,0,2.1,2.1,0,1,0,4.17,0Z"/><path d="M104.1,23.88a3.68,3.68,0,0,1,3.75-3.94,3.39,3.39,0,0,1,3.58,3.51v.88h-5.61a2,2,0,0,0,2,1.91,1.69,1.69,0,0,0,1.72-1h1.72a3.38,3.38,0,0,1-3.42,2.6A3.67,3.67,0,0,1,104.1,23.88Zm5.66-.82a1.74,1.74,0,0,0-1.89-1.66,2,2,0,0,0-2,1.66Z"/><path d="M112.9,20.13h1.73v1h.24A1.75,1.75,0,0,1,116.61,20h1v1.71h-1.14c-1.29,0-1.86.79-1.86,2.11V27.6H112.9Z"/><path d="M118.52,25.25h1.73c.11.59.68,1.05,1.64,1.05s1.49-.42,1.49-1-.42-.74-1-.81L121,24.41c-1.55-.16-2.29-.87-2.29-2.06,0-1.43,1.19-2.41,3.07-2.41s2.91.89,3,2.28h-1.66c-.08-.49-.59-.83-1.38-.83s-1.33.29-1.33.88.4.73,1.27.79l1.12.11c1.39.12,2.24.67,2.24,2.11s-1.16,2.51-3.24,2.51S118.61,26.67,118.52,25.25Z"/><path d="M131.26,27.6,128.34,24V27.6h-1.72V16.44h1.72v7l2.81-3.29h2.06l-3,3.46v.23l3.16,3.78Z"/><path d="M137,26.81l-3.11-6.68h2l1.53,3.38a7.28,7.28,0,0,1,.44,1.07H138a7.47,7.47,0,0,1,.42-1.07L140,20.13h1.93L137,31h-2Z"/><path d="M72.54,34.85H69.21v-1.6h8.4v1.6H74.3V44.1H72.54Z"/><path d="M76.93,40.37a3.87,3.87,0,1,1,3.86,3.92A3.76,3.76,0,0,1,76.93,40.37Zm6,0a2.15,2.15,0,1,0-2.14,2.31A2.14,2.14,0,0,0,82.93,40.37Z"/><path d="M86.91,41.62V38.21H85.38V36.63h1.53v-2h1.72v2H91v1.58H88.63v3.15c0,.74.33,1.12,1.14,1.12H90.9V44.1H89.38A2.22,2.22,0,0,1,86.91,41.62Z"/><path d="M99.17,39.16V44.1H97.45v-.63H97.2a3.23,3.23,0,0,1-2.2.82c-1.67,0-2.66-.92-2.66-2.28s1-2.34,2.79-2.34h2.32v-.42C97.45,38.51,97,38,96,38s-1.43.39-1.53,1H92.65c.17-1.53,1.42-2.59,3.38-2.59C97.84,36.44,99.17,37.27,99.17,39.16Zm-1.72,2.65v-.9H95.3c-.78,0-1.21.33-1.21,1s.54,1,1.3,1A2.51,2.51,0,0,0,97.45,41.81Z"/><path d="M100.85,32.94h1.72V44.1h-1.72Z"/><path d="M107.6,40.68h1.82c.12,1,.94,2,2.65,2s2.29-.81,2.29-1.74-.68-1.44-1.67-1.52l-1.43-.12c-1.89-.16-3.33-1.09-3.33-2.93s1.61-3.27,3.92-3.27,3.85,1.25,4,3.25h-1.81c-.14-.93-.84-1.58-2.25-1.58s-2.12.64-2.12,1.47.86,1.3,2,1.4l1.35.11c1.81.15,3.1,1.11,3.1,3.08,0,2.14-1.75,3.49-4.15,3.49C109.32,44.29,107.7,42.8,107.6,40.68Z"/><path d="M117.54,40.38a3.68,3.68,0,0,1,3.75-3.94A3.39,3.39,0,0,1,124.87,40v.88h-5.61a1.94,1.94,0,0,0,2,1.91A1.69,1.69,0,0,0,123,41.69h1.72a3.39,3.39,0,0,1-3.42,2.6A3.67,3.67,0,0,1,117.54,40.38Zm5.66-.82a1.75,1.75,0,0,0-1.89-1.66,2,2,0,0,0-2,1.66Z"/><path d="M126.14,40.37a3.69,3.69,0,0,1,3.75-3.93,3.28,3.28,0,0,1,3.44,2.78h-1.7A1.64,1.64,0,0,0,129.89,38a2.08,2.08,0,0,0-2.07,2.37,2.09,2.09,0,0,0,2.06,2.37,1.65,1.65,0,0,0,1.75-1.23h1.7a3.28,3.28,0,0,1-3.44,2.78A3.69,3.69,0,0,1,126.14,40.37Z"/><path d="M134.77,41.42V36.63h1.72v4.25a1.53,1.53,0,0,0,1.65,1.7A1.82,1.82,0,0,0,140,40.51V36.63h1.72V44.1H140v-.88h-.25a2.48,2.48,0,0,1-2.22,1.07A2.59,2.59,0,0,1,134.77,41.42Z"/><path d="M143.39,36.63h1.72v1h.25a1.74,1.74,0,0,1,1.74-1.07h1v1.71H147c-1.28,0-1.86.79-1.86,2.11V44.1h-1.72Z"/><path d="M149.31,33.34h1.86v1.85h-1.86Zm.08,3.29h1.72V44.1h-1.72Z"/><path d="M153.82,41.62V38.21h-1.53V36.63h1.53v-2h1.72v2h2.35v1.58h-2.35v3.15c0,.74.33,1.12,1.14,1.12h1.13V44.1h-1.52A2.22,2.22,0,0,1,153.82,41.62Z"/><path d="M162,43.31l-3.1-6.68h2L162.38,40a6.39,6.39,0,0,1,.43,1.07h.24a9.05,9.05,0,0,1,.41-1.07L165,36.63H167l-5,10.88h-2Z"/></g></svg>