<?xml version="1.0" encoding="utf-8"?>
<!-- Generator: Adobe Illustrator 24.1.2, SVG Export Plug-In . SVG Version: 6.00 Build 0)  -->
<svg version="1.1" id="Camada_1" xmlns="http://www.w3.org/2000/svg" xmlns:xlink="http://www.w3.org/1999/xlink" x="0px" y="0px"
	 viewBox="0 0 279.1 53.2" style="enable-background:new 0 0 279.1 53.2;" xml:space="preserve">
<style type="text/css">
	.st0{fill:#FFFFFF;}
</style>
<g id="Layer_2">
	<g id="Layer_1-2">
		<path class="st0" d="M125.8,26.7c0,10.6-6.5,15.6-14.5,15.6h-4.9V36h4.6c4.9,0,8.1-2.6,8.1-9.2s-3.1-9.8-8.3-9.8
			c-5,0-8.6,3.1-8.6,9.7v26.5h-6.7V11.4h6.7V15h1c2.1-2.8,5.5-4.4,9-4.4C119.6,10.6,125.8,16,125.8,26.7z M81.5,24L77,23.5
			c-3.5-0.3-5.4-1.3-5.4-3.3c0-2.4,2.4-3.9,5.8-3.9s5.8,1.7,6,4h6.5c-0.3-6-4.9-9.8-12.4-9.8s-12.6,4-12.6,9.8c0,4.9,3.1,8,10.1,8.7
			l4.6,0.5c2.8,0.3,4.6,0.8,4.6,3.5c0,2.4-1.7,4.1-6.3,4.1c-4.2,0-6.3-1.9-7-4.5h-7c0.7,5.8,5.6,10.4,14,10.4c7.9,0,13-4.2,13-10.3
			C90.9,27.3,87.3,24.6,81.5,24z M151.8,32.8c-1.3,2.7-4.1,4.4-7.2,4.3c-4.9,0-8.6-3.2-8.6-10.1c0-6.6,3.4-10.3,8.7-10.3
			c4.7,0,7.4,2.8,7.6,7.1h-12.1v4.9H159v-3.2c0-8.9-5.9-14.7-14.3-14.7c-7.8,0-15.3,5.3-15.3,16.2s7.5,16.2,15.3,16.2
			c6.5,0.2,12.2-4.1,13.8-10.4L151.8,32.8z M45.7,10.6c-7.4,0-12.9,3.9-13.5,9.8h7.3c0.5-2.2,2.5-3.8,6.3-3.8c4.9,0,6.5,2.6,6.5,5.7
			v10.6c-2.8,3.1-6,4.6-9.2,4.6s-5.6-1.6-5.6-4.5s1.8-4.5,5.3-4.5H48v-4.9h-5.6c-7.7,0-12,3.9-12,9.7c0,5.5,4.2,9.7,11,9.7
			c3.5-0.1,6.9-1.3,9.8-3.4h1v2.6h6.7V21.7C58.9,14.1,53.7,10.6,45.7,10.6z M0,42.3h6.7V0H0V42.3z M28.3,11.4h-8.2l-9.8,12.9v4
			l10.1,14h8.3l-11.8-16L28.3,11.4z M271.7,11.4l-5.5,12.3c-1.2,2.5-2.3,5.1-3,7.8h-1c-0.8-2.7-1.8-5.2-3.1-7.7l-5.5-12.3h-7.4
			l12.9,27.8l-6.4,14h7.2l19.2-41.8L271.7,11.4z M244.7,11.4h-8.2l-9.8,12.9v4l10.1,14h8.3l-11.8-16L244.7,11.4z M202.5,24l-4.5-0.5
			c-3.5-0.3-5.4-1.3-5.4-3.3c0-2.4,2.4-3.9,5.8-3.9s5.8,1.7,6,4h6.5c-0.3-6-4.9-9.8-12.4-9.8s-12.6,4-12.6,9.8c0,4.9,3.1,8,10.1,8.7
			l4.6,0.5c2.8,0.3,4.6,0.8,4.6,3.5c0,2.4-1.7,4.1-6.3,4.1c-4.2,0-6.3-1.9-7-4.5h-7c0.7,5.8,5.6,10.3,14,10.3c7.9,0,13-4.2,13-10.3
			C211.9,27.3,208.3,24.6,202.5,24z M216.4,42.3h6.7V0h-6.7V42.3z M172,15h-1v-3.6h-6.7v30.9h6.7V26.2c0-5.5,2.6-8.7,7.6-8.7h4.3
			v-6.8h-2.5C175.8,10.6,173.8,12.4,172,15z"/>
	</g>
</g>
</svg>
