<svg xmlns="http://www.w3.org/2000/svg" viewBox="0 0 279.14 53.17"><title>logo</title><g id="Layer_2" data-name="Layer 2"><g id="Layer_1-2" data-name="Layer 1"><path d="M125.76,26.74c0,10.58-6.46,15.58-14.54,15.58h-4.94V36h4.55c4.87,0,8.12-2.63,8.12-9.23s-3.07-9.81-8.27-9.81c-5,0-8.58,3.08-8.58,9.68V53.16H95.37V11.42h6.73V15h1a10.93,10.93,0,0,1,9-4.36C119.55,10.65,125.76,16,125.76,26.74ZM81.51,24,77,23.54c-3.53-.32-5.39-1.28-5.39-3.33,0-2.44,2.37-3.85,5.77-3.85s5.77,1.67,6,4h6.48c-.26-6-4.94-9.75-12.38-9.75s-12.57,4-12.57,9.81c0,4.87,3.08,8,10.07,8.72l4.55.45c2.76.26,4.62.83,4.62,3.46,0,2.37-1.73,4.1-6.28,4.1-4.19,0-6.26-1.9-7-4.45h-7c.7,5.83,5.6,10.35,14,10.35,7.89,0,13-4.17,13-10.33C90.87,27.32,87.28,24.56,81.51,24Zm70.33,8.75A7.45,7.45,0,0,1,144.68,37c-4.94,0-8.59-3.21-8.59-10.13,0-6.61,3.4-10.26,8.66-10.26,4.68,0,7.38,2.82,7.63,7.05H140.26v4.87H159V25.32c0-8.91-5.9-14.69-14.3-14.69-7.82,0-15.33,5.32-15.33,16.23s7.5,16.23,15.33,16.23a13.8,13.8,0,0,0,13.84-10.35ZM45.69,10.65c-7.38,0-12.89,3.85-13.53,9.75h7.25c.51-2.18,2.5-3.78,6.29-3.78,4.87,0,6.48,2.57,6.48,5.71V32.9c-2.76,3.14-6,4.62-9.17,4.62s-5.64-1.6-5.64-4.49,1.8-4.49,5.26-4.49H48V23.67H42.44c-7.7,0-12,3.85-12,9.75,0,5.52,4.17,9.68,11,9.68a16.53,16.53,0,0,0,9.75-3.4h1v2.63h6.73V21.68C58.9,14.05,53.7,10.65,45.69,10.65ZM0,42.33H6.73V0H0ZM28.28,11.42H20.07L10.26,24.31v4l10.07,14h8.34l-11.8-16Zm243.43,0-5.52,12.25a42.91,42.91,0,0,0-3,7.76h-1a43.72,43.72,0,0,0-3.08-7.7l-5.52-12.31h-7.44l12.95,27.77-6.41,14h7.18l19.24-41.75Zm-27,0h-8.21l-9.81,12.89v4l10.07,14h8.34l-11.8-16ZM202.54,24l-4.49-.45c-3.53-.32-5.39-1.28-5.39-3.33,0-2.44,2.37-3.85,5.77-3.85s5.77,1.67,6,4h6.48c-.26-6-4.94-9.75-12.38-9.75s-12.57,4-12.57,9.81c0,4.87,3.08,8,10.07,8.72l4.55.45c2.76.26,4.62.83,4.62,3.46,0,2.37-1.73,4.1-6.29,4.1-4.19,0-6.26-1.9-7-4.45h-7c.7,5.83,5.6,10.35,14,10.35,7.89,0,13-4.17,13-10.33C211.9,27.32,208.31,24.56,202.54,24Zm13.88,18.34h6.73V0h-6.73ZM172,15h-1V11.42h-6.73V42.33h6.73V26.17c0-5.52,2.55-8.72,7.57-8.72h4.26v-6.8h-2.47C175.76,10.65,173.78,12.4,172,15Z"/></g></g></svg>